<svg width="58" height="57" viewBox="0 0 58 57" fill="none" xmlns="http://www.w3.org/2000/svg">
<path d="M18.4715 35.6613C18.4518 36.6138 18.4332 37.7175 18.4265 38.7041C18.4225 39.2916 18.4229 39.8314 18.4288 40.2705H20.6714L34.6291 54.6101H46.9179V50.8545H37.3335L32.6781 45.9062L32.1109 46.4824L30.4463 44.7923L31.0516 44.1774L23.0395 35.6613H18.4715ZM11.8556 49.6595H2.3543V54.6101H19.0026V42.6604H11.8556V49.6595ZM21.3569 18.6944V22.346H11.9397V26.443H25.0565V20.7299L31.8918 12.1034H39.1823V14.4933H33.0197L28.6911 19.956H31.6149V22.346H27.4108V28.8329H11.9397V35.1492H9.58538V28.8329H2.3543V47.2696H9.50129V39.4169H11.8556V40.2705H16.0742C16.0684 39.8124 16.0682 39.2662 16.0722 38.6874C16.0821 37.2392 16.116 35.5496 16.1441 34.4357L16.1737 33.2714H24.0465L38.3405 48.4645H45.384L39.6579 42.2453L38.333 43.5906L36.6684 41.9009L38.0498 40.4982L29.7185 31.4489L43.2698 14.4933H42.8819V12.1034H48.3851L44.5616 8.00635H30.4713L21.3569 18.6944ZM2.3543 26.443H9.58538V18.5903H11.9397V19.956H19.0026V8.00635H11.8664L11.9397 16.0187L9.58538 16.0407L9.51213 8.00635H2.3543V26.443ZM46.7103 6.83372L51.1447 11.5852L54.6705 8.00635L50.113 3.37985L46.7103 6.83372ZM49.2722 57H33.6457L21.3569 44.3745V57H0V5.61641H21.3569V15.0424L29.3953 5.61641H44.5807L50.113 0L58 8.00635L51.6097 14.4933H46.3014L32.8384 31.3379L49.2722 49.188V57Z" fill="white"/>
</svg>
